<svg xmlns="http://www.w3.org/2000/svg" viewBox="0 0 870.85 126.56"><defs><style>.cls-1{fill:#191818;}</style></defs><title>Pantascope-Logo</title><g id="Layer_2" data-name="Layer 2"><g id="Layer_1-2" data-name="Layer 1"><path class="cls-1" d="M176.64,7.15H140.83v94.78H160.4V68.39h16.24c23,0,34.75-12.25,34.75-30.62S199.67,7.15,176.64,7.15Zm-2.66,45H160.4V23.39H174c12.38,0,17.44,5.46,17.44,14.38S186.36,52.15,174,52.15Z"/><path class="cls-1" d="M273,58.93c0-17.7-9.85-26.75-29-26.75s-28.62,10.38-29.28,23.29h18.1c.27-6.39,4.26-10.25,11.18-10.25,6.53,0,11,3.46,11,12v2.4c-4.26.27-11.85,1.07-16.9,1.86C218.57,64.53,211.91,72,211.91,83c0,11.72,8.65,20.5,23,20.5,9.32,0,16.91-3.46,22-10.65h.26a38.84,38.84,0,0,0,.93,9.05h16.78c-1.2-4.52-1.87-10-1.87-18.5ZM255,73.45c0,6.12-.66,9.71-3.86,12.91-2.66,2.66-6.79,3.86-10.65,3.86-6.52,0-10-3.46-10-8.52,0-5.46,3.19-8,10.91-9.32,4-.67,9.59-1.2,13.58-1.46Z"/><path class="cls-1" d="M319.87,32.71A24.06,24.06,0,0,0,300,42.83h-.26V34.31H282.33v67.62H301V65.72c0-12.24,5.59-18.37,13.32-18.37,7.32,0,11.84,4.66,11.84,14.91v39.67h18.64V60.4C344.76,42,335,32.71,319.87,32.71Z"/><path class="cls-1" d="M377.63,77.57V48.15h12.92V34.31H377.63V16.73H359V34.31H348.08V48.15H359V80.9c0,15.71,6.79,22,22.36,22a37.4,37.4,0,0,0,9.85-1.34V87.29a16.61,16.61,0,0,1-4.79.67C380,88,377.63,85,377.63,77.57Z"/><path class="cls-1" d="M453.78,58.93c0-17.7-9.86-26.75-29-26.75s-28.62,10.38-29.28,23.29h18.1c.27-6.39,4.26-10.25,11.18-10.25,6.53,0,11.05,3.46,11.05,12v2.4c-4.26.27-11.84,1.07-16.9,1.86C399.33,64.53,392.67,72,392.67,83c0,11.72,8.65,20.5,23,20.5,9.32,0,16.91-3.46,22-10.65h.26a38.29,38.29,0,0,0,.94,9.05h16.77c-1.2-4.52-1.86-10-1.86-18.5Zm-18,14.52c0,6.12-.66,9.71-3.86,12.91-2.66,2.66-6.79,3.86-10.65,3.86-6.52,0-10-3.46-10-8.52,0-5.46,3.19-8,10.92-9.32,4-.67,9.58-1.2,13.57-1.46Z"/><path class="cls-1" d="M496.1,60.13c-10.25-2.66-14.51-3.86-14.51-8.65,0-3.86,3.2-6.26,9.19-6.26,6.65,0,10.65,2.93,10.65,9.85h17.83c0-15-10.65-22.89-28.35-22.89-16.77,0-28,8.65-28,20.76,0,15.71,12.12,18.38,23.43,21.3C496.9,77,502,78.24,502,84.1c0,4-3.33,6.52-9.85,6.52-7.72,0-11.85-3.86-11.85-10.65h-18.9c0,16.37,11.58,24.09,30.35,24.09,18.37,0,29.82-8.52,29.82-21.16C521.53,66.39,508.22,63.33,496.1,60.13Z"/><path class="cls-1" d="M560.26,46.55c7.19,0,12,4.93,12.64,12.92h19.44c-1.46-15.84-13.71-27.29-32-27.29-20.63,0-34.08,14.11-34.08,35.94s13.45,35.94,34.08,35.94c18.24,0,30.49-11.44,32-28.62H572.77c-.53,8.79-5.32,14.25-12.51,14.25-9,0-14.51-8.26-14.51-21.57S551.21,46.55,560.26,46.55Z"/><path class="cls-1" d="M631.2,32.18c-21.16,0-34.61,14-34.61,35.94S610,104.06,631.2,104.06s34.62-14,34.62-35.94S652.37,32.18,631.2,32.18Zm0,57.51c-9.18,0-15-8.39-15-21.57s5.86-21.57,15-21.57,15,8.39,15,21.57S640.39,89.69,631.2,89.69Z"/><path class="cls-1" d="M709.34,32.58A22.3,22.3,0,0,0,689.9,43.23h-.26V34.31H671.53v92.25h18.64V93.81h.27c4.12,6.39,11.45,9.85,19.17,9.85,16.9,0,27.82-14,27.82-35.54S726.38,32.58,709.34,32.58Zm-6,56.84c-8.39,0-14.11-7.85-14.11-21.3s5.72-21.3,14.11-21.3c8.92,0,14.64,8.39,14.64,21.3S712.27,89.42,703.35,89.42Z"/><path class="cls-1" d="M807.58,54.67C803.32,41,791.87,32.18,776.29,32.18c-21.16,0-33.55,15.44-33.55,35.41,0,21.56,12.39,36.47,33.69,36.47,18,0,29.68-10.25,32.34-22.63h-19c-.94,5.46-5.86,9.45-13.31,9.45-8,0-14.78-4.92-15.31-18.9h48.59C809.71,64.53,809,59.33,807.58,54.67Zm-46.06,5.6C763,50,768.7,45.36,776.29,45.36S789.87,50,791.07,60.27Z"/><polygon class="cls-1" points="814.83 39.43 822.95 39.43 822.95 60.27 829.02 60.27 829.02 39.43 837.13 39.43 837.13 34.23 814.83 34.23 814.83 39.43"/><path class="cls-1" d="M861.41,34.23l-3.22,10.9c-1,3.14-1.82,6.43-2.55,9.65h-.15c-.73-3.22-1.61-6.51-2.56-9.65l-3.14-10.9h-9.44v26H846V48.13c0-3.15-.07-6.29-.14-9.36H846c.81,3.07,1.69,6.14,2.56,9.21l3.59,12.29h6.94L862.66,48c.87-3.07,1.68-6.14,2.56-9.21h.14c-.07,3.07-.14,6.21-.14,9.36V60.27h5.63v-26Z"/><path class="cls-1" d="M73.57,43.58a23.45,23.45,0,1,0-8.07-8.06l-11,10.95-11-10.95a23.5,23.5,0,1,0-8.06,8.06l11,11-11,11a23.54,23.54,0,1,0,8.06,8.07l11-11,11,11a23.48,23.48,0,1,0,8.07-8.07l-11-11ZM85.62,11.41A12.06,12.06,0,1,1,73.57,23.46,12.06,12.06,0,0,1,85.62,11.41ZM11.41,23.46A12.06,12.06,0,1,1,23.46,35.52,12.07,12.07,0,0,1,11.41,23.46ZM23.46,97.67a12.05,12.05,0,1,1,12.06-12A12.06,12.06,0,0,1,23.46,97.67Zm74.21-12a12,12,0,1,1-12-12.05A12.06,12.06,0,0,1,97.67,85.62Z"/></g></g></svg>