<svg xmlns="http://www.w3.org/2000/svg" viewBox="0 0 239.72 239.72"><defs><style>.cls-1{fill:none;stroke:#fff;stroke-miterlimit:10;}.cls-2{fill:#fff;}</style></defs><title>icon-scroll</title><g id="Layer_2" data-name="Layer 2"><g id="Layer_1-2" data-name="Layer 1"><circle class="cls-1" cx="119.86" cy="119.86" r="119.36"/><path class="cls-2" d="M41.85,113.93a6.42,6.42,0,0,1-.25,1.64H37a5.07,5.07,0,0,0,.09-.9c0-1.74-1.12-2.73-3.36-2.73-2.05,0-3.66,1.12-3.66,2.67s1.24,2.14,4,3c3.16,1.06,6,2.24,6,6.47,0,3.32-3.17,7.29-9.35,7.29-5.16,0-8.17-2.11-8.17-6a6.8,6.8,0,0,1,.22-1.74h4.72a5.29,5.29,0,0,0-.12,1.12c0,1.92,1.27,3,3.88,3,2.79,0,4-1.68,4-2.92,0-1.8-1.3-2.3-3.72-3.17-3.2-1.12-6.18-2.2-6.18-6.37,0-3.13,3.1-7,9-7C39.31,108.31,41.85,110.2,41.85,113.93Z"/><path class="cls-2" d="M67.52,115.54a7.26,7.26,0,0,1-.12,1.37H62.8a7.43,7.43,0,0,0,.06-.87,3.39,3.39,0,0,0-3.69-3.7c-4.79,0-7.15,5.66-7.15,9.82,0,3.11,1.34,5.22,4,5.22a5.67,5.67,0,0,0,5.25-3.79H66a10.48,10.48,0,0,1-10.34,7.82c-5.34,0-8.36-3.47-8.36-8.94,0-6.28,4-14.16,12.27-14.16C64.48,108.31,67.52,111.16,67.52,115.54Z"/><path class="cls-2" d="M85,108.8c4.72,0,6.89,1.93,6.89,5.28a6.86,6.86,0,0,1-5.52,6.62v.06c1.27.53,1.83,1.55,2.2,4.26l.81,5.9H84.62L84,125.67c-.28-2.36-1.06-3.2-3.23-3.2H78.28l-2.08,8.45H71.63l5.5-22.12Zm-5.75,10h3.54c3.27,0,4.29-2.08,4.29-3.63,0-1.89-1.06-2.7-3-2.7H80.8Z"/><path class="cls-2" d="M118,117.75c0,6.21-4,13.66-12,13.66-5.75,0-9-3.69-9-9.44,0-6.21,4-13.66,12-13.66C114.76,108.31,118,112,118,117.75Zm-16.43,4.19c0,3.36,1.62,5.44,4.57,5.44,4.81,0,7.27-5.53,7.27-9.63,0-3.33-1.65-5.41-4.6-5.41C104,112.34,101.59,117.84,101.59,121.94Z"/><path class="cls-2" d="M138.63,127l-1,3.92h-15l5.5-22.12h4.57L128.19,127Z"/><path class="cls-2" d="M160.23,127l-1,3.92h-15l5.5-22.12h4.57L149.79,127Z"/><polygon class="cls-2" points="204.88 107.84 202.75 109.96 211.48 118.69 177.52 118.69 177.52 121.69 211.48 121.69 202.75 130.41 204.88 132.53 217.22 120.19 204.88 107.84"/></g></g></svg>